<svg width="32" height="32" viewBox="0 0 32 32" fill="none" xmlns="http://www.w3.org/2000/svg">
<g clip-path="url(#clip0_113_3667)">
<circle cx="16" cy="16" r="16" fill="#3C79FB"/>
<path d="M14.3892 13.7403L18.0953 13.7403L18.4924 26.4038L13.9921 26.4038L14.3892 13.7403Z" fill="black"/>
<path d="M13.5398 8.72194C13.5398 7.95627 13.7988 7.31445 14.3168 6.7965C14.8347 6.27854 15.4765 6.01956 16.2422 6.01956C17.0079 6.01956 17.6497 6.27854 18.1676 6.7965C18.6856 7.31445 18.9446 7.95627 18.9446 8.72194C18.9446 9.48761 18.6856 10.1294 18.1676 10.6474C17.6497 11.1653 17.0079 11.4243 16.2422 11.4243C15.4765 11.4243 14.8347 11.1653 14.3168 10.6474C13.7988 10.1294 13.5398 9.48761 13.5398 8.72194Z" fill="black"/>
</g>
<defs>
<clipPath id="clip0_113_3667">
<rect width="32" height="32" fill="white"/>
</clipPath>
</defs>
</svg>
