<svg width="32" height="32" viewBox="0 0 32 32" fill="none" xmlns="http://www.w3.org/2000/svg">
<g clip-path="url(#clip0_95_2888)">
<circle cx="16" cy="16" r="16" fill="#FCCC0A"/>
<path d="M24.7278 12.9834C24.7278 14.5745 24.1744 15.9165 23.0627 17.0283C21.9508 18.1403 20.6082 18.6943 19.0168 18.6943C18.6503 18.6943 18.3067 18.6622 17.9856 18.5996C17.6625 18.5366 17.3417 18.4413 17.0247 18.3145L16.8264 18.2354L16.675 18.3877L10.5911 24.5225C10.4511 24.6619 10.2906 24.7274 10.092 24.7275C9.8928 24.7275 9.73138 24.6617 9.59106 24.5215L7.47876 22.4092C7.33852 22.2689 7.2727 22.1074 7.2727 21.9082C7.27279 21.7588 7.30999 21.6313 7.38794 21.5176L7.47876 21.4082L13.6125 15.3252L13.7649 15.1738L13.6858 14.9756C13.559 14.6586 13.4637 14.3378 13.4006 14.0146C13.338 13.6935 13.3059 13.35 13.3059 12.9834C13.3059 11.3921 13.86 10.0494 14.9719 8.9375C16.0838 7.82584 17.4257 7.27249 19.0168 7.27246C19.5898 7.27246 20.1317 7.35223 20.6438 7.50977C21.031 7.6289 21.4029 7.78324 21.759 7.97363L18.1575 11.5752L20.425 13.8428L24.0266 10.2412C24.217 10.5973 24.3713 10.9693 24.4905 11.3564C24.648 11.8685 24.7278 12.4104 24.7278 12.9834Z" fill="black" stroke="#FFC800" stroke-width="0.646835"/>
</g>
<defs>
<clipPath id="clip0_95_2888">
<rect width="32" height="32" fill="white"/>
</clipPath>
</defs>
</svg>
