<svg width="32" height="32" viewBox="0 0 32 32" fill="none" xmlns="http://www.w3.org/2000/svg">
<g clip-path="url(#clip0_95_2884)">
<rect x="-0.824463" y="16" width="23.7935" height="23.7935" rx="2.02425" transform="rotate(-45 -0.824463 16)" fill="#EE342E"/>
<path d="M17.0918 18.8156H14.9077L14.2524 4.8374H17.747L17.0918 18.8156Z" fill="black"/>
<path d="M18.3296 23.5773C18.3296 24.2373 18.1063 24.7906 17.6598 25.2372C17.2133 25.6837 16.6599 25.907 15.9999 25.907C15.3398 25.907 14.7865 25.6837 14.34 25.2372C13.8934 24.7906 13.6702 24.2373 13.6702 23.5773C13.6702 22.9172 13.8934 22.3639 14.34 21.9173C14.7865 21.4708 15.3398 21.2476 15.9999 21.2476C16.6599 21.2476 17.2133 21.4708 17.6598 21.9173C18.1063 22.3639 18.3296 22.9172 18.3296 23.5773Z" fill="black"/>
</g>
<defs>
<clipPath id="clip0_95_2884">
<rect width="32" height="32" fill="white"/>
</clipPath>
</defs>
</svg>
