<svg width="32" height="32" viewBox="0 0 32 32" fill="none" xmlns="http://www.w3.org/2000/svg">
<g clip-path="url(#clip0_95_2883)">
<path d="M13.4268 2.89649C14.5815 0.89649 17.4683 0.896485 18.623 2.89649L31.4882 25.1797C32.6429 27.1797 31.1995 29.6797 28.8901 29.6797H3.15969C0.850293 29.6797 -0.593087 27.1797 0.561613 25.1797L13.4268 2.89649Z" fill="#FCCC0A"/>
<path d="M17.2969 19.973H15.1873L14.5544 6.47168H17.9298L17.2969 19.973Z" fill="black"/>
<path d="M18.4924 24.5725C18.4924 25.2101 18.2768 25.7445 17.8455 26.1758C17.4142 26.6071 16.8797 26.8227 16.2422 26.8227C15.6046 26.8227 15.0702 26.6071 14.6389 26.1758C14.2076 25.7445 13.9919 25.2101 13.9919 24.5725C13.9919 23.9349 14.2076 23.4005 14.6389 22.9692C15.0702 22.5379 15.6046 22.3223 16.2422 22.3223C16.8797 22.3223 17.4142 22.5379 17.8455 22.9692C18.2768 23.4005 18.4924 23.9349 18.4924 24.5725Z" fill="black"/>
</g>
<defs>
<clipPath id="clip0_95_2883">
<rect width="32" height="32" fill="white"/>
</clipPath>
</defs>
</svg>
